<?xml version="1.0" encoding="UTF-8"?>
<!DOCTYPE svg PUBLIC "-//W3C//DTD SVG 1.1//EN" "http://www.w3.org/Graphics/SVG/1.1/DTD/svg11.dtd">
<svg xmlns="http://www.w3.org/2000/svg" version="1.1" width="200px" height="73px" style="shape-rendering:geometricPrecision; text-rendering:geometricPrecision; image-rendering:optimizeQuality; fill-rule:evenodd; clip-rule:evenodd" xmlns:xlink="http://www.w3.org/1999/xlink">
<g><path style="opacity:0.139" fill="#fdfdfe" d="M 199.5,1.5 C 199.5,2.5 199.5,3.5 199.5,4.5C 198.833,4.16667 198.167,3.83333 197.5,3.5C 197.833,2.5 198.5,1.83333 199.5,1.5 Z"/></g>
<g><path style="opacity:0.349" fill="#f9fafa" d="M 62.5,3.5 C 58.8019,3.55241 55.1352,3.88575 51.5,4.5C 53.7804,3.2333 56.2804,2.2333 59,1.5C 60.4595,1.80822 61.6261,2.47489 62.5,3.5 Z"/></g>
<g><path style="opacity:0.124" fill="#fefefe" d="M 140.5,3.5 C 139.504,3.41423 138.671,3.74756 138,4.5C 137.5,14.1609 137.334,23.8276 137.5,33.5C 136.81,23.9619 136.143,14.2952 135.5,4.5C 137.07,2.62115 138.736,2.28782 140.5,3.5 Z"/></g>
<g><path style="opacity:0.957" fill="#f2f3f3" d="M 62.5,3.5 C 63.4584,3.9528 64.2917,4.61947 65,5.5C 66.645,15.4739 66.645,25.4739 65,35.5C 64.4005,37.9096 63.2338,39.9096 61.5,41.5C 60.5178,42.1408 59.5178,42.8075 58.5,43.5C 57.8333,35.0096 57.1666,26.6763 56.5,18.5C 51.9714,17.7265 47.3047,17.0599 42.5,16.5C 41.2586,12.8889 42.2586,9.88888 45.5,7.5C 47.9674,7.24512 49.9674,6.24512 51.5,4.5C 55.1352,3.88575 58.8019,3.55241 62.5,3.5 Z"/></g>
<g><path style="opacity:0.072" fill="#fefefe" d="M 100.5,3.5 C 102.099,4.56205 103.766,4.56205 105.5,3.5C 105.5,3.83333 105.5,4.16667 105.5,4.5C 104.513,9.30537 104.179,14.3054 104.5,19.5C 103.834,16.6417 103.167,13.6417 102.5,10.5C 101.817,10.8627 101.15,11.1961 100.5,11.5C 100.5,8.83333 100.5,6.16667 100.5,3.5 Z"/></g>
<g><path style="opacity:0.102" fill="#fefffe" d="M 131.5,3.5 C 132.586,3.61998 133.253,4.28665 133.5,5.5C 132.884,14.982 132.217,24.3154 131.5,33.5C 131.5,23.5 131.5,13.5 131.5,3.5 Z"/></g>
<g><path style="opacity:0.959" fill="#f1f2f3" d="M 100.5,3.5 C 100.5,6.16667 100.5,8.83333 100.5,11.5C 97.8333,11.5 95.1667,11.5 92.5,11.5C 92.5,17.8333 92.5,24.1667 92.5,30.5C 93.0908,34.7406 91.2575,36.4073 87,35.5C 85.0145,35.4313 83.5145,34.7647 82.5,33.5C 82.5,26.1667 82.5,18.8333 82.5,11.5C 79.8333,11.5 77.1667,11.5 74.5,11.5C 73.2335,9.30574 73.2335,6.97241 74.5,4.5C 83.1411,3.50196 91.8078,3.16863 100.5,3.5 Z"/></g>
<g><path style="opacity:0.475" fill="#f5f6f6" d="M 105.5,4.5 C 105.5,14.5 105.5,24.5 105.5,34.5C 104.733,33.828 104.066,32.9947 103.5,32C 104.464,27.9341 104.797,23.7675 104.5,19.5C 104.179,14.3054 104.513,9.30537 105.5,4.5 Z"/></g>
<g><path style="opacity:0.964" fill="#f1f2f3" d="M 114.5,3.5 C 114.5,7.16667 114.5,10.8333 114.5,14.5C 116.833,14.5 119.167,14.5 121.5,14.5C 121.244,10.7307 121.577,7.06405 122.5,3.5C 125.535,2.26647 128.535,2.26647 131.5,3.5C 131.5,13.5 131.5,23.5 131.5,33.5C 131.389,34.1174 131.056,34.6174 130.5,35C 127.304,35.8045 124.304,35.6378 121.5,34.5C 121.5,30.8333 121.5,27.1667 121.5,23.5C 119.167,23.5 116.833,23.5 114.5,23.5C 114.5,27.1667 114.5,30.8333 114.5,34.5C 111.5,35.8333 108.5,35.8333 105.5,34.5C 105.5,24.5 105.5,14.5 105.5,4.5C 105.5,4.16667 105.5,3.83333 105.5,3.5C 108.362,2.31868 111.362,2.31868 114.5,3.5 Z"/></g>
<g><path style="opacity:0.11" fill="#fefefe" d="M 114.5,3.5 C 115.319,6.30536 115.819,9.30536 116,12.5C 117.333,13.8333 118.667,13.8333 120,12.5C 119.93,9.00804 120.763,6.00804 122.5,3.5C 121.577,7.06405 121.244,10.7307 121.5,14.5C 119.167,14.5 116.833,14.5 114.5,14.5C 114.5,10.8333 114.5,7.16667 114.5,3.5 Z"/></g>
<g><path style="opacity:0.953" fill="#f1f2f3" d="M 140.5,3.5 C 147.175,3.33375 153.842,3.50042 160.5,4C 161.814,6.60469 161.814,9.10469 160.5,11.5C 156.167,11.5 151.833,11.5 147.5,11.5C 147.5,12.8333 147.5,14.1667 147.5,15.5C 150.833,15.5 154.167,15.5 157.5,15.5C 157.5,17.8333 157.5,20.1667 157.5,22.5C 154.167,22.5 150.833,22.5 147.5,22.5C 147.5,23.8333 147.5,25.1667 147.5,26.5C 151.5,26.5 155.5,26.5 159.5,26.5C 162.145,29.2171 162.145,32.0505 159.5,35C 152.5,35.6667 145.5,35.6667 138.5,35C 137.944,34.6174 137.611,34.1174 137.5,33.5C 137.334,23.8276 137.5,14.1609 138,4.5C 138.671,3.74756 139.504,3.41423 140.5,3.5 Z"/></g>
<g><path style="opacity:0.178" fill="#fdfdfd" d="M 189.5,4.5 C 189.5,11.8333 189.5,19.1667 189.5,26.5C 187.5,26.5 185.5,26.5 183.5,26.5C 183.5,23.8333 183.5,21.1667 183.5,18.5C 184.002,21.0846 185.169,23.418 187,25.5C 187.573,18.3203 188.406,11.3203 189.5,4.5 Z"/></g>
<g><path style="opacity:0.974" fill="#f2f2f3" d="M 197.5,3.5 C 198.167,3.83333 198.833,4.16667 199.5,4.5C 199.5,12.8333 199.5,21.1667 199.5,29.5C 198.599,30.2905 197.932,31.2905 197.5,32.5C 190.902,37.147 183.902,37.647 176.5,34C 175.299,33.0975 174.465,31.9308 174,30.5C 173.333,26.5 173.333,22.5 174,18.5C 177.269,17.1816 180.435,17.1816 183.5,18.5C 183.5,21.1667 183.5,23.8333 183.5,26.5C 185.5,26.5 187.5,26.5 189.5,26.5C 189.5,19.1667 189.5,11.8333 189.5,4.5C 191.948,3.52693 194.615,3.1936 197.5,3.5 Z"/></g>
<g><path style="opacity:0.502" fill="#f9f9f9" d="M 51.5,4.5 C 49.9674,6.24512 47.9674,7.24512 45.5,7.5C 47.0326,5.75488 49.0326,4.75488 51.5,4.5 Z"/></g>
<g><path style="opacity:0.281" fill="#fdfdfd" d="M 54.5,10.5 C 57.8606,11.2032 58.1939,12.5365 55.5,14.5C 53.3576,13.5629 53.0243,12.2296 54.5,10.5 Z"/></g>
<g><path style="opacity:0.189" fill="#fdfdfd" d="M 160.5,11.5 C 158.771,12.2362 157.771,13.5695 157.5,15.5C 154.167,15.5 150.833,15.5 147.5,15.5C 147.5,14.1667 147.5,12.8333 147.5,11.5C 151.833,11.5 156.167,11.5 160.5,11.5 Z"/></g>
<g><path style="opacity:0.224" fill="#fdfdfd" d="M 74.5,11.5 C 77.1667,11.5 79.8333,11.5 82.5,11.5C 82.5,18.8333 82.5,26.1667 82.5,33.5C 81.6717,27.0126 81.1717,20.346 81,13.5C 78.723,12.8828 76.5563,12.2161 74.5,11.5 Z"/></g>
<g><path style="opacity:0.066" fill="#fdfdfd" d="M 100.5,11.5 C 98.5615,13.1628 96.2282,13.8294 93.5,13.5C 93.8222,19.358 93.4889,25.0247 92.5,30.5C 92.5,24.1667 92.5,17.8333 92.5,11.5C 95.1667,11.5 97.8333,11.5 100.5,11.5 Z"/></g>
<g><path style="opacity:0.492" fill="#f5f6f6" d="M 42.5,16.5 C 47.3047,17.0599 51.9714,17.7265 56.5,18.5C 52.8333,18.5 49.1667,18.5 45.5,18.5C 43.9731,18.573 42.9731,17.9063 42.5,16.5 Z"/></g>
<g><path style="opacity:0.157" fill="#fefefe" d="M 45.5,18.5 C 49.1667,18.5 52.8333,18.5 56.5,18.5C 57.1666,26.6763 57.8333,35.0096 58.5,43.5C 59.5178,42.8075 60.5178,42.1408 61.5,41.5C 60.6441,44.5131 58.8108,45.1797 56,43.5C 55.3076,44.0253 54.8076,44.6919 54.5,45.5C 56.2818,46.9841 58.2818,47.9841 60.5,48.5C 58.1667,48.5 55.8333,48.5 53.5,48.5C 53.5,39.8333 53.5,31.1667 53.5,22.5C 51.3926,21.5318 49.0593,21.1984 46.5,21.5C 46.4431,20.391 46.1098,19.391 45.5,18.5 Z M 53.5,20.5 C 54.0768,19.2267 54.7435,19.2267 55.5,20.5C 55.0302,21.463 54.3635,21.463 53.5,20.5 Z"/></g>
<g><path style="opacity:0.316" fill="#f8f9f9" d="M 46.5,21.5 C 49.0593,21.1984 51.3926,21.5318 53.5,22.5C 51.1667,22.5 48.8333,22.5 46.5,22.5C 46.5,23.8333 46.5,25.1667 46.5,26.5C 36.5,26.5 26.5,26.5 16.5,26.5C 25.324,25.6703 34.324,25.1703 43.5,25C 44.6364,23.8549 45.6364,22.6883 46.5,21.5 Z"/></g>
<g><path style="opacity:0.932" fill="#f1f2f3" d="M 53.5,22.5 C 53.5,31.1667 53.5,39.8333 53.5,48.5C 56.0529,49.2549 58.7196,49.9216 61.5,50.5C 63.1113,53.3316 62.278,55.3316 59,56.5C 57.9701,56.1639 57.4701,55.4972 57.5,54.5C 56.8166,52.8235 55.4832,52.1568 53.5,52.5C 52.0413,52.5674 50.7079,52.2341 49.5,51.5C 47.3316,48.5628 45.9983,45.2295 45.5,41.5C 39.9678,42.2028 35.9678,45.0361 33.5,50C 31.3496,51.4114 29.0163,52.2447 26.5,52.5C 26.6659,57.5111 26.4993,62.5111 26,67.5C 22.9433,68.4505 19.7766,68.7839 16.5,68.5C 15.7784,68.0825 15.2784,67.4158 15,66.5C 14.199,58.0881 14.3656,49.7548 15.5,41.5C 16.5,41.5 17.5,41.5 18.5,41.5C 17.3791,37.5264 15.5457,33.8597 13,30.5C 10.2628,29.3895 7.42945,29.2228 4.5,30C 3.16667,31 3.16667,32 4.5,33C 6.92037,33.2904 9.2537,33.7904 11.5,34.5C 11.5858,35.4959 11.2524,36.3292 10.5,37C 7.40803,37.7358 4.40803,37.5691 1.5,36.5C 0.166667,33.5 0.166667,30.5 1.5,27.5C 6.30537,26.5128 11.3054,26.1795 16.5,26.5C 26.5,26.5 36.5,26.5 46.5,26.5C 46.5,25.1667 46.5,23.8333 46.5,22.5C 48.8333,22.5 51.1667,22.5 53.5,22.5 Z M 42.5,46.5 C 41.1474,45.1329 41.4807,44.1329 43.5,43.5C 44.7979,45.0517 44.4646,46.0517 42.5,46.5 Z"/></g>
<g><path style="opacity:0.146" fill="#fdfdfd" d="M 157.5,22.5 C 157.733,24.0618 158.4,25.3951 159.5,26.5C 155.5,26.5 151.5,26.5 147.5,26.5C 147.5,25.1667 147.5,23.8333 147.5,22.5C 150.833,22.5 154.167,22.5 157.5,22.5 Z"/></g>
<g><path style="opacity:0.153" fill="#fefefe" d="M 121.5,34.5 C 120.681,31.6946 120.181,28.6946 120,25.5C 118.667,24.1667 117.333,24.1667 116,25.5C 115.819,28.6946 115.319,31.6946 114.5,34.5C 114.5,30.8333 114.5,27.1667 114.5,23.5C 116.833,23.5 119.167,23.5 121.5,23.5C 121.5,27.1667 121.5,30.8333 121.5,34.5 Z"/></g>
<g><path style="opacity:0.4" fill="#f9fafa" d="M -0.5,27.5 C 0.166667,27.5 0.833333,27.5 1.5,27.5C 0.166667,30.5 0.166667,33.5 1.5,36.5C 0.833333,36.5 0.166667,36.5 -0.5,36.5C -0.5,33.5 -0.5,30.5 -0.5,27.5 Z"/></g>
<g><path style="opacity:0.26" fill="#fdfefe" d="M 15.5,41.5 C 16.8484,37.8118 15.515,35.4785 11.5,34.5C 9.2537,33.7904 6.92037,33.2904 4.5,33C 3.16667,32 3.16667,31 4.5,30C 7.42945,29.2228 10.2628,29.3895 13,30.5C 15.5457,33.8597 17.3791,37.5264 18.5,41.5C 17.5,41.5 16.5,41.5 15.5,41.5 Z"/></g>
<g><path style="opacity:0.231" fill="#fdfdfd" d="M 199.5,29.5 C 199.5,30.8333 199.5,32.1667 199.5,33.5C 198.833,33.1667 198.167,32.8333 197.5,32.5C 197.932,31.2905 198.599,30.2905 199.5,29.5 Z"/></g>
<g><path style="opacity:0.141" fill="#fefefe" d="M 49.5,51.5 C 47.7659,50.438 46.0992,50.438 44.5,51.5C 44.1075,49.7162 43.4408,48.0495 42.5,46.5C 39.7291,48.767 37.0625,51.267 34.5,54C 33.255,54.7914 31.9217,55.2914 30.5,55.5C 30.3345,59.5138 30.5012,63.5138 31,67.5C 34.8325,68.8002 38.6658,68.8002 42.5,67.5C 42.5858,68.4959 42.2524,69.3292 41.5,70C 36.6449,71.1644 32.3115,70.331 28.5,67.5C 26.9085,69.9838 24.5752,70.9838 21.5,70.5C 19.3603,70.4439 17.6936,69.7773 16.5,68.5C 19.7766,68.7839 22.9433,68.4505 26,67.5C 26.4993,62.5111 26.6659,57.5111 26.5,52.5C 29.0163,52.2447 31.3496,51.4114 33.5,50C 35.9678,45.0361 39.9678,42.2028 45.5,41.5C 45.9983,45.2295 47.3316,48.5628 49.5,51.5 Z M 42.5,46.5 C 44.4646,46.0517 44.7979,45.0517 43.5,43.5C 41.4807,44.1329 41.1474,45.1329 42.5,46.5 Z M 30.5,55.5 C 27.9726,61.1436 27.1393,60.8102 28,54.5C 29.4609,53.1175 30.2942,53.4508 30.5,55.5 Z"/></g>
<g><path style="opacity:0.935" fill="#f2f3f4" d="M 104.5,45.5 C 104.768,48.1194 104.435,50.6194 103.5,53C 104.044,53.7172 104.711,54.2172 105.5,54.5C 106.117,54.6107 106.617,54.944 107,55.5C 107.808,59.0267 107.641,62.3601 106.5,65.5C 105.711,65.7828 105.044,66.2828 104.5,67C 98.5092,67.4995 92.5092,67.6662 86.5,67.5C 85.0207,63.0907 84.3541,58.424 84.5,53.5C 84.539,50.113 84.8723,46.7797 85.5,43.5C 86.0253,42.8076 86.6919,42.3076 87.5,42C 91.8333,41.3333 96.1667,41.3333 100.5,42C 102.544,42.4983 103.878,43.665 104.5,45.5 Z M 97.5,61.5 C 96.8333,61.5 96.1667,61.5 95.5,61.5C 96.1667,58.8333 96.8333,58.8333 97.5,61.5 Z"/></g>
<g><path style="opacity:0.945" fill="#f2f3f3" d="M 120.5,42.5 C 120.5,48.8333 120.5,55.1667 120.5,61.5C 122.5,61.5 124.5,61.5 126.5,61.5C 126.5,59.1667 126.5,56.8333 126.5,54.5C 128.941,53.2437 131.274,53.2437 133.5,54.5C 133.5,58.8333 133.5,63.1667 133.5,67.5C 126.833,67.5 120.167,67.5 113.5,67.5C 112.344,59.6775 112.177,51.6775 113,43.5C 115.357,41.3542 117.857,41.0209 120.5,42.5 Z"/></g>
<g><path style="opacity:0.963" fill="#f2f3f4" d="M 157.5,67.5 C 140.909,70.8986 134.909,64.2319 139.5,47.5C 139.913,44.5849 141.579,42.7516 144.5,42C 148.167,41.3333 151.833,41.3333 155.5,42C 157.848,42.3459 159.681,43.5125 161,45.5C 161.667,51.8333 161.667,58.1667 161,64.5C 160.241,66.0629 159.074,67.0629 157.5,67.5 Z M 152.5,51.5 C 152.5,52.8333 152.5,54.1667 152.5,55.5C 151.837,57.0419 151.17,58.7086 150.5,60.5C 149.914,60.2907 149.414,59.9574 149,59.5C 148.502,56.5184 148.335,53.5184 148.5,50.5C 149.959,50.4326 151.292,50.7659 152.5,51.5 Z"/></g>
<g><path style="opacity:0.949" fill="#f2f3f4" d="M 185.5,49.5 C 182.167,49.5 178.833,49.5 175.5,49.5C 175.335,53.1817 175.501,56.8484 176,60.5C 177.356,61.3802 178.856,61.7135 180.5,61.5C 180.5,59.1667 180.5,56.8333 180.5,54.5C 182.833,54.5 185.167,54.5 187.5,54.5C 187.5,58.8333 187.5,63.1667 187.5,67.5C 181.441,67.7461 175.441,67.4128 169.5,66.5C 168.034,65.653 167.2,64.3197 167,62.5C 162.619,46.5621 168.452,39.7288 184.5,42C 186.832,44.1836 187.165,46.6836 185.5,49.5 Z"/></g>
<g><path style="opacity:0.142" fill="#fdfdfd" d="M 104.5,45.5 C 105.477,48.2869 105.81,51.2869 105.5,54.5C 104.711,54.2172 104.044,53.7172 103.5,53C 104.435,50.6194 104.768,48.1194 104.5,45.5 Z"/></g>
<g><path style="opacity:0.977" fill="#f1f2f3" d="M 42.5,46.5 C 43.4408,48.0495 44.1075,49.7162 44.5,51.5C 42.5539,56.3958 41.8872,61.7291 42.5,67.5C 38.6658,68.8002 34.8325,68.8002 31,67.5C 30.5012,63.5138 30.3345,59.5138 30.5,55.5C 31.9217,55.2914 33.255,54.7914 34.5,54C 37.0625,51.267 39.7291,48.767 42.5,46.5 Z"/></g>
<g><path style="opacity:0.12" fill="#fdfdfd" d="M 139.5,47.5 C 134.909,64.2319 140.909,70.8986 157.5,67.5C 155.668,69.8942 153.168,70.8942 150,70.5C 140.288,70.765 136.455,66.0983 138.5,56.5C 138.502,53.3138 138.835,50.3138 139.5,47.5 Z"/></g>
<g><path style="opacity:0.349" fill="#f8f9f9" d="M 53.5,48.5 C 55.8333,48.5 58.1667,48.5 60.5,48.5C 61.3382,48.8417 61.6716,49.5084 61.5,50.5C 58.7196,49.9216 56.0529,49.2549 53.5,48.5 Z"/></g>
<g><path style="opacity:0.144" fill="#fefefe" d="M 93.5,48.5 C 94.8333,48.5 96.1667,48.5 97.5,48.5C 97.5,49.8333 97.5,51.1667 97.5,52.5C 96.1667,52.5 94.8333,52.5 93.5,52.5C 93.5,51.1667 93.5,49.8333 93.5,48.5 Z"/></g>
<g><path style="opacity:0.084" fill="#fefefe" d="M 152.5,51.5 C 151.292,50.7659 149.959,50.4326 148.5,50.5C 148.335,53.5184 148.502,56.5184 149,59.5C 149.414,59.9574 149.914,60.2907 150.5,60.5C 151.17,58.7086 151.837,57.0419 152.5,55.5C 152.5,57.5 152.5,59.5 152.5,61.5C 150.833,61.5 149.167,61.5 147.5,61.5C 147.5,57.5 147.5,53.5 147.5,49.5C 149.781,49.0773 151.448,49.744 152.5,51.5 Z"/></g>
<g><path style="opacity:0.126" fill="#fefefe" d="M 185.5,49.5 C 185.389,50.1174 185.056,50.6174 184.5,51C 182.005,51.1575 179.672,51.3241 177.5,51.5C 176.12,54.3179 176.287,56.9845 178,59.5C 178.757,57.6854 179.59,56.0188 180.5,54.5C 180.5,56.8333 180.5,59.1667 180.5,61.5C 178.856,61.7135 177.356,61.3802 176,60.5C 175.501,56.8484 175.335,53.1817 175.5,49.5C 178.833,49.5 182.167,49.5 185.5,49.5 Z"/></g>
<g><path style="opacity:0.096" fill="#fefefe" d="M 44.5,51.5 C 43.8765,56.9349 43.2099,62.2683 42.5,67.5C 41.8872,61.7291 42.5539,56.3958 44.5,51.5 Z"/></g>
<g><path style="opacity:0.133" fill="#fcfcfc" d="M 53.5,52.5 C 55.4832,52.1568 56.8166,52.8235 57.5,54.5C 56.0048,54.0113 54.6715,53.3446 53.5,52.5 Z"/></g>
<g><path style="opacity:0.138" fill="#fefffe" d="M 187.5,54.5 C 185.167,54.5 182.833,54.5 180.5,54.5C 182.75,51.9659 185.084,51.9659 187.5,54.5 Z"/></g>
<g><path style="opacity:0.091" fill="#fbfcfc" d="M 120.5,42.5 C 121.201,48.0844 122.201,53.751 123.5,59.5C 124.065,57.4565 125.065,55.7898 126.5,54.5C 126.5,56.8333 126.5,59.1667 126.5,61.5C 124.5,61.5 122.5,61.5 120.5,61.5C 120.5,55.1667 120.5,48.8333 120.5,42.5 Z"/></g>
<g><path style="opacity:0.201" fill="#fdfdfd" d="M 133.5,54.5 C 134.824,59.2337 134.824,64.0671 133.5,69C 130.167,69.1667 126.833,69.3333 123.5,69.5C 119.761,69.4864 116.428,68.8197 113.5,67.5C 120.167,67.5 126.833,67.5 133.5,67.5C 133.5,63.1667 133.5,58.8333 133.5,54.5 Z"/></g>
<g><path style="opacity:0.142" fill="#fdfdfd" d="M 97.5,61.5 C 96.8333,58.8333 96.1667,58.8333 95.5,61.5C 93.8235,60.8166 93.1568,59.4832 93.5,57.5C 95.5,57.5 97.5,57.5 99.5,57.5C 99.8432,59.4832 99.1765,60.8166 97.5,61.5 Z M 97.5,61.5 C 96.8333,61.5 96.1667,61.5 95.5,61.5C 96.1667,58.8333 96.8333,58.8333 97.5,61.5 Z"/></g>
<g><path style="opacity:0.214" fill="#fdfdfd" d="M 106.5,65.5 C 106.489,67.0174 105.823,68.1841 104.5,69C 99.1667,69.6667 93.8333,69.6667 88.5,69C 87.5842,68.7216 86.9175,68.2216 86.5,67.5C 92.5092,67.6662 98.5092,67.4995 104.5,67C 105.044,66.2828 105.711,65.7828 106.5,65.5 Z"/></g>
<g><path style="opacity:0.203" fill="#fcfcfc" d="M 187.5,54.5 C 189.994,59.1839 189.994,64.0172 187.5,69C 182.833,69.6667 178.167,69.6667 173.5,69C 171.68,68.7996 170.347,67.9663 169.5,66.5C 175.441,67.4128 181.441,67.7461 187.5,67.5C 187.5,63.1667 187.5,58.8333 187.5,54.5 Z"/></g>
</svg>
